<?xml version="1.0" encoding="utf-8"?><!-- Uploaded to: SVG Repo, www.svgrepo.com, Generator: SVG Repo Mixer Tools -->
<svg fill="#000000" width="50px" height="50px" viewBox="0 0 24 24" id="bill-dollar" data-name="Flat Line" xmlns="http://www.w3.org/2000/svg" class="icon flat-line"><path id="secondary" d="M11,10a8,8,0,0,1,4.13-7H5A1,1,0,0,0,4,4V21l2.34-1,2.33,1L11,20l2.33,1,2.33-1L18,21V17.93A8,8,0,0,1,11,10Z" style="fill: rgb(44, 169, 188); stroke-width: 2;"></path><path id="primary" d="M16,13h2.5A1.5,1.5,0,0,0,20,11.5h0A1.5,1.5,0,0,0,18.5,10h-1A1.5,1.5,0,0,1,16,8.5h0A1.5,1.5,0,0,1,17.5,7H20" style="fill: none; stroke: rgb(0, 0, 0); stroke-linecap: round; stroke-linejoin: round; stroke-width: 2;"></path><path id="primary-2" data-name="primary" d="M18,7V6m0,8V13m-6,2H8m4-4H8" style="fill: none; stroke: rgb(0, 0, 0); stroke-linecap: round; stroke-linejoin: round; stroke-width: 2;"></path><path id="primary-3" data-name="primary" d="M15,3H5A1,1,0,0,0,4,4V21l2.34-1,2.33,1L11,20l2.33,1,2.33-1L18,21V18" style="fill: none; stroke: rgb(0, 0, 0); stroke-linecap: round; stroke-linejoin: round; stroke-width: 1;"></path></svg>