<svg width="40" height="40" viewBox="0 0 130 130" fill="none" xmlns="http://www.w3.org/2000/svg">
<path d="M65 130C93.4832 130 109.317 130 119.659 119.659C130 109.317 130 93.4926 130 65C130 36.5074 130 20.6829 119.659 10.3414C109.317 0 93.4832 0 65 0C36.5168 0 20.6829 0 10.3414 10.3414C0 20.6829 0 36.5168 0 65C0 93.4832 0 109.317 10.3414 119.659C20.6829 130 36.5168 130 65 130Z" fill="black"/>
<path d="M63.0805 50.6178C63.0805 52.302 62.346 53.6654 59.7021 53.6654C57.0582 53.6654 56.3238 52.3287 56.3238 50.6178C56.3238 48.907 57.1918 47.5703 59.7021 47.5703C62.2125 47.5703 63.0805 48.907 63.0805 50.6178Z" fill="white"/>
<path d="M61.6381 73.3804L55.7896 77.3903L61.5846 56.9132H51.0626L49.5803 61.0301H55.7362L51.7303 75.7329C51.471 76.5932 51.4845 77.5128 51.7691 78.365C52.0536 79.2172 52.5952 79.9601 53.3192 80.4914C54.0734 81.0235 54.9738 81.3091 55.8966 81.3091C56.8193 81.3091 57.7194 81.0235 58.4736 80.4914L63.9214 76.7889C63.3606 75.8666 62.2657 74.2492 61.6381 73.3804Z" fill="white"/>
<path d="M23.0879 49.2012H32.8223C36.9217 49.2012 40.7004 50.5379 42.6766 53.2914C44.6529 56.0448 45.641 59.9744 45.641 65.2273C45.641 70.4802 44.6529 74.4503 42.6766 77.177C40.7004 79.9037 37.6692 81.2668 33.5698 81.2668H23.0879V49.2012ZM33.2493 77.0298C34.2514 77.1016 35.2556 76.9229 36.1716 76.51C37.0876 76.097 37.8869 75.4627 38.4973 74.6639C39.7696 72.6477 40.3722 70.2804 40.2196 67.9006V62.5541C40.3705 60.1702 39.7681 57.7994 38.4973 55.7776C37.8869 54.9789 37.0876 54.3446 36.1716 53.9316C35.2556 53.5186 34.2514 53.34 33.2493 53.4118H28.1888V77.0164L33.2493 77.0298Z" fill="white"/>
<path d="M91.455 81.1734C93.0055 81.2149 94.543 80.8816 95.9376 80.2022C97.3322 79.5229 98.5428 78.5171 99.4668 77.2702L99.5871 77.0832V77.3103C99.961 79.8098 101.376 80.9325 104.181 80.9325C104.816 80.941 105.45 80.892 106.077 80.7857V75.9603H105.249C104.274 75.9603 103.78 75.4526 103.78 74.4234V64.3853C103.78 59.3997 100.348 56.3656 94.5931 56.3656C92.743 56.3311 90.9045 56.6682 89.1867 57.3569C87.4689 58.0457 85.9066 59.072 84.5917 60.3754L87.7696 63.8642C88.5965 62.9533 89.6016 62.2222 90.7225 61.7163C91.8435 61.2105 93.0566 60.9404 94.286 60.9233C97.0368 60.9233 98.8126 62.0731 98.8126 63.8374C98.8126 65.6018 96.7562 65.9357 93.8319 66.3367C91.5501 66.5097 89.3254 67.137 87.2888 68.1814C86.2401 68.7615 85.3766 69.6262 84.7978 70.6762C84.2189 71.7262 83.9484 72.9187 84.0173 74.116C84.0307 78.3664 87.0218 81.1734 91.455 81.1734ZM94.2459 70.1195H94.4327C95.858 69.9936 97.2501 69.618 98.5456 69.01L98.6789 68.9297V71.6029C98.6789 74.49 96.0086 76.8293 92.6035 76.8293C92.173 76.8905 91.7342 76.856 91.3185 76.7285C90.9027 76.601 90.5201 76.3833 90.1977 76.0912C89.8753 75.7991 89.6211 75.4396 89.4531 75.0382C89.285 74.6367 89.2072 74.2033 89.2252 73.7684C89.2252 71.0417 91.6555 70.5873 94.2459 70.1195Z" fill="white"/>
<path d="M79.7576 50.6178C79.7576 52.302 79.0098 53.6654 76.3792 53.6654C73.7487 53.6654 73.0009 52.3287 73.0009 50.6178C73.0009 48.907 73.8555 47.5703 76.3792 47.5703C78.903 47.5703 79.7576 48.907 79.7576 50.6178Z" fill="white"/>
<path d="M77.9815 73.5812L72.5069 77.4175L78.3153 56.9404H67.9002L66.4179 61.0573H72.4668L68.4609 75.7601C68.201 76.6216 68.2155 77.5427 68.5027 78.3955C68.7898 79.2483 69.3354 79.9904 70.0632 80.5186C70.8175 81.0507 71.7175 81.3363 72.6403 81.3363C73.563 81.3363 74.4634 81.0507 75.2176 80.5186L80.2651 77.0165C79.7043 76.0808 78.6224 74.4634 77.9815 73.5812Z" fill="white"/>
</svg>
