<?xml version="1.0" encoding="iso-8859-1"?>
<!-- Uploaded to: SVG Repo, www.svgrepo.com, Generator: SVG Repo Mixer Tools -->
<svg height="40px" width="40px" version="1.1" id="Capa_1" xmlns="http://www.w3.org/2000/svg" xmlns:xlink="http://www.w3.org/1999/xlink" 
	 viewBox="0 0 459 459" xml:space="preserve">
<g>
	<path d="M356.764,147.5c1.13,10.5-2.28,21.03-9.34,28.88c-7.06,7.86-17.16,12.36-27.72,12.36h-32.3v234.88
		c0,2.47-1.22,4.79-3.26,6.19l-40.76,27.88c-1.26,0.87-2.74,1.31-4.23,1.31c-1.08,0-2.15-0.23-3.16-0.7l-60.06-27.88
		c-2.65-1.23-4.34-3.88-4.34-6.8V188.74h-32.3c-10.56,0-20.66-4.5-27.72-12.36c-7.06-7.85-10.46-18.38-9.34-28.88l12.22-114.19
		C116.484,14.32,132.414,0,151.514,0h155.97c19.1,0,35.03,14.32,37.07,33.31L356.764,147.5z M336.274,166.35
		c4.28-4.76,6.26-10.89,5.58-17.26l-12.22-114.18c-1.21-11.35-10.74-19.91-22.15-19.91h-39.85v53.39l18.85,18.86
		c2.49-1.12,5.24-1.75,8.14-1.75c11.03,0,20,8.97,20,20s-8.97,20-20,20s-20-8.97-20-20c0-2.63,0.53-5.14,1.45-7.45l-21.25-21.25
		c-1.4-1.4-2.19-3.31-2.19-5.3V15h-15.63v102.97c7.32,2.97,12.5,10.15,12.5,18.53c0,11.02-8.98,20-20,20c-11.03,0-20-8.98-20-20
		c0-8.38,5.18-15.56,12.5-18.53V15h-15.63v30.15c0,1.99-0.79,3.9-2.2,5.3l-21.25,21.26c0.93,2.3,1.45,4.81,1.45,7.44
		c0,11.03-8.97,20-20,20c-11.03,0-20-8.97-20-20s8.97-20,20-20c2.9,0,5.65,0.63,8.14,1.75l18.86-18.86V15h-39.86
		c-11.41,0-20.93,8.56-22.15,19.91l-12.21,114.18c-0.69,6.37,1.3,12.5,5.58,17.26c4.28,4.77,10.16,7.39,16.56,7.39h180.41
		C326.104,173.74,331.994,171.12,336.274,166.35z M299.624,105.5c0-2.76-2.24-5-5-5c-2.75,0-5,2.24-5,5c0,2.75,2.25,5,5,5
		C297.384,110.5,299.624,108.25,299.624,105.5z M272.404,419.66v-33.59h-25.75v51.21L272.404,419.66z M272.404,371.07v-30.04h-25.75
		v30.04H272.404z M272.404,326.03v-66.51h-25.75v66.51H272.404z M272.404,244.52v-23.61h-25.75v23.61H272.404z M272.404,205.91
		v-17.17h-25.75v17.17H272.404z M234.504,136.5c0-2.76-2.25-5-5-5c-2.76,0-5,2.24-5,5c0,2.75,2.24,5,5,5
		C232.254,141.5,234.504,139.25,234.504,136.5z M231.654,439.75V188.74h-45.06v230.09L231.654,439.75z M169.374,79.15
		c0-2.76-2.24-5-5-5c-2.76,0-5,2.24-5,5s2.24,5,5,5C167.134,84.15,169.374,81.91,169.374,79.15z"/>
	<path style="fill:#F48C6C;" d="M341.854,149.09c0.68,6.37-1.3,12.5-5.58,17.26c-4.28,4.77-10.17,7.39-16.57,7.39h-180.41
		c-6.4,0-12.28-2.62-16.56-7.39c-4.28-4.76-6.27-10.89-5.58-17.26l12.21-114.18c1.22-11.35,10.74-19.91,22.15-19.91h39.86v27.04
		l-18.86,18.86c-2.49-1.12-5.24-1.75-8.14-1.75c-11.03,0-20,8.97-20,20s8.97,20,20,20c11.03,0,20-8.97,20-20
		c0-2.63-0.52-5.14-1.45-7.44l21.25-21.26c1.41-1.4,2.2-3.31,2.2-5.3V15h15.63v102.97c-7.32,2.97-12.5,10.15-12.5,18.53
		c0,11.02,8.97,20,20,20c11.02,0,20-8.98,20-20c0-8.38-5.18-15.56-12.5-18.53V15h15.63v56.5c0,1.99,0.79,3.9,2.19,5.3l21.25,21.25
		c-0.92,2.31-1.45,4.82-1.45,7.45c0,11.03,8.97,20,20,20s20-8.97,20-20s-8.97-20-20-20c-2.9,0-5.65,0.63-8.14,1.75l-18.85-18.86V15
		h39.85c11.41,0,20.94,8.56,22.15,19.91L341.854,149.09z"/>
	<path style="fill:#3DD0F2;" d="M294.624,100.5c2.76,0,5,2.24,5,5c0,2.75-2.24,5-5,5c-2.75,0-5-2.25-5-5
		C289.624,102.74,291.874,100.5,294.624,100.5z"/>
	<path style="fill:#3DD0F2;" d="M229.504,131.5c2.75,0,5,2.24,5,5c0,2.75-2.25,5-5,5c-2.76,0-5-2.25-5-5
		C224.504,133.74,226.744,131.5,229.504,131.5z"/>
	<circle style="fill:#3DD0F2;" cx="164.374" cy="79.15" r="5"/>
</g>
</svg>