<?xml version="1.0" encoding="utf-8"?><!-- Uploaded to: SVG Repo, www.svgrepo.com, Generator: SVG Repo Mixer Tools -->
<svg fill="#000000" width="20px" height="20px" viewBox="0 0 24 24" id="upload-7" data-name="Flat Color" xmlns="http://www.w3.org/2000/svg" class="icon flat-color"><path id="secondary" d="M14.83,5.5,12.69,2.38a.82.82,0,0,0-1.38,0L9.17,5.5A1,1,0,0,0,9.86,7H11V17a1,1,0,0,0,2,0V7h1.14A1,1,0,0,0,14.83,5.5Z" style="fill: rgb(44, 169, 188);"></path><path id="primary" d="M19,22H5a2,2,0,0,1-2-2V13a2,2,0,0,1,2-2H8a1,1,0,0,1,0,2H5v7H19V13H16a1,1,0,0,1,0-2h3a2,2,0,0,1,2,2v7A2,2,0,0,1,19,22Z" style="fill: rgb(0, 0, 0);"></path></svg>