<?xml version="1.0" encoding="iso-8859-1"?>
<!-- Uploaded to: SVG Repo, www.svgrepo.com, Generator: SVG Repo Mixer Tools -->
<svg height="20x" width="20px" version="1.1" id="Layer_1" xmlns="http://www.w3.org/2000/svg" xmlns:xlink="http://www.w3.org/1999/xlink" 
	 viewBox="0 0 511.999 511.999" xml:space="preserve">
<path style="fill:#EFF2FA;" d="M128.351,504.462l-0.149-79.451c-0.03-16.222,4.944-32.065,14.255-45.399l85.607-122.595
	l-86.068-123.228c-9.361-13.403-14.396-29.35-14.426-45.699l-0.15-80.072l256.23-0.481l0.15,80.072
	c0.031,16.349-4.943,32.315-14.255,45.753L283.94,256.913l86.067,122.273c9.361,13.299,14.395,29.123,14.426,45.345l0.149,79.451"/>
<g>
	<path style="fill:#EBD2AF;" d="M199.383,160.019c0,0,56.084,80.387,56.589,81.281c0.5-0.896,56.282-81.493,56.282-81.493
		L199.383,160.019z"/>
	<path style="fill:#EBD2AF;" d="M336.477,472.042l16.014-0.03l-0.089-47.423c-0.018-9.688-2.988-19.013-8.588-26.969l-37.754-53.636
		l-99.791,0.187l-37.552,53.777c-5.57,7.977-8.505,17.315-8.487,27.001l0.089,47.423l96.089-0.18"/>
</g>
<path style="fill:#E4EAF6;" d="M127.568,88.09c0.031,16.349,5.066,32.296,14.427,45.699l86.068,123.228l-85.607,122.595
	c-9.31,13.334-14.286,29.176-14.255,45.399l0.149,79.451l86.521-0.163v-74.854c0-25.036,3.017-49.164,8.455-67.62l24.39-82.779
	c1.631-5.537,2.536-12.774,2.536-20.285c0-7.511-0.906-14.748-2.536-20.285l-24.391-82.781c-5.438-18.455-8.455-42.581-8.455-67.617
	V7.854l-87.453,0.164L127.568,88.09z"/>
<g>
	<path style="fill:#E1C3A0;" d="M243.065,222.688l-18.479-62.715l-25.204,0.047C199.383,160.019,226.363,198.691,243.065,222.688z"
		/>
	<path style="fill:#E1C3A0;" d="M223.326,361.826l5.214-17.697l-22.271,0.042l-37.552,53.777c-5.57,7.977-8.505,17.315-8.487,27.002
		l0.089,47.423l54.552-0.103v-42.825C214.872,404.41,217.888,380.282,223.326,361.826z"/>
</g>
<path d="M400.595,496.444c-0.005,0-0.01,0-0.015,0l-8.508,0.016l-0.135-71.944c-0.034-17.851-5.496-35.02-15.794-49.652
	l-83.048-117.985l82.619-119.243c10.233-14.77,15.624-32.075,15.591-50.043l-0.136-72.565l8.508-0.016
	c4.146-0.008,7.501-3.375,7.493-7.521C407.16,3.351,403.801,0,399.661,0c-0.005,0-0.01,0-0.015,0l-15.995,0.03
	c-0.002,0-0.003,0-0.005,0c-0.005,0-0.01,0-0.015,0c-0.002,0-0.004,0-0.005,0L111.389,0.541c-4.146,0.008-7.501,3.375-7.493,7.521
	c0.008,4.142,3.367,7.493,7.507,7.493c0.005,0,0.01,0,0.015,0l8.508-0.016l0.136,72.565c0.034,17.968,5.49,35.253,15.779,49.983
	l83.066,118.932l-82.605,118.296c-10.244,14.67-15.64,31.861-15.607,49.711l0.135,71.944l-8.508,0.016
	c-4.146,0.008-7.501,3.375-7.493,7.521c0.008,4.142,3.367,7.493,7.507,7.493c0.005,0,0.01,0,0.015,0l288.258-0.542
	c4.146-0.008,7.501-3.375,7.493-7.521C408.093,499.795,404.734,496.444,400.595,496.444z M135.709,424.997
	c-0.028-14.75,4.434-28.958,12.904-41.087l85.606-122.595c1.803-2.582,1.803-6.014,0-8.596L148.15,129.49
	c-8.526-12.206-13.047-26.527-13.075-41.415l-0.136-72.565l241.216-0.453l0.136,72.565c0.028,14.887-4.439,29.225-12.919,41.463
	l-85.605,123.553c-1.794,2.588-1.781,6.021,0.032,8.596l86.066,122.273c8.515,12.096,13.03,26.287,13.058,41.038l0.135,71.945
	l-241.216,0.453L135.709,424.997z"/>
<path d="M304.454,464.596c-0.005,0-0.01,0-0.015,0l-16.015,0.03c-4.146,0.008-7.501,3.375-7.493,7.521
	c0.008,4.141,3.367,7.493,7.507,7.493c0.005,0,0.01,0,0.015,0l16.015-0.03c4.146-0.008,7.501-3.375,7.493-7.521
	C311.953,467.948,308.594,464.596,304.454,464.596z"/>
<path d="M255.971,248.807c0.005,0,0.011,0,0.016,0c2.586-0.005,4.979-1.341,6.344-3.519c1.725-2.607,34.416-49.887,56.094-81.21
	c1.59-2.297,1.773-5.289,0.473-7.762c-1.297-2.47-3.856-4.017-6.646-4.017c-0.004,0-0.009,0-0.014,0l-112.87,0.212
	c-2.795,0.005-5.355,1.562-6.645,4.042c-1.29,2.479-1.097,5.469,0.502,7.761c21.796,31.241,54.665,78.395,56.401,80.999
	C250.998,247.482,253.389,248.807,255.971,248.807z M297.911,167.341c-23.74,34.31-35.806,51.781-41.965,60.724
	c-6.191-8.919-18.32-26.343-42.193-60.566L297.911,167.341z"/>
<path d="M349.952,393.3l-37.754-53.636c-1.406-1.998-3.695-3.186-6.138-3.186c-0.004,0-0.009,0-0.014,0l-99.791,0.188
	c-2.447,0.004-4.739,1.202-6.14,3.209l-37.552,53.777c-6.458,9.248-9.86,20.077-9.839,31.314l0.089,47.423
	c0.004,1.991,0.798,3.898,2.209,5.304c1.407,1.401,3.312,2.189,5.298,2.189c0.004,0,0.009,0,0.014,0l96.089-0.181
	c4.146-0.008,7.501-3.375,7.493-7.521c-0.008-4.141-3.367-7.493-7.507-7.493c-0.005,0-0.01,0-0.015,0l-88.582,0.167l-0.075-39.916
	c-0.016-8.137,2.451-15.983,7.134-22.689l35.318-50.577l91.981-0.173l35.506,50.442c4.708,6.689,7.204,14.525,7.219,22.663
	l0.075,39.916l-8.508,0.016c-4.146,0.008-7.501,3.375-7.493,7.521c0.008,4.141,3.367,7.493,7.507,7.493c0.005,0,0.01,0,0.015,0
	l16.014-0.03c1.991-0.004,3.898-0.798,5.304-2.209c1.405-1.41,2.193-3.321,2.189-5.313l-0.089-47.423
	C359.888,413.339,356.445,402.524,349.952,393.3z"/>
<path d="M330.198,133.908c1.304,0.904,2.794,1.337,4.269,1.337c2.379,0,4.719-1.128,6.177-3.232l8.743-12.617
	c6.491-9.367,9.911-20.343,9.889-31.741l-0.015-8.007c-0.008-4.141-3.367-7.493-7.507-7.493c-0.005,0-0.01,0-0.015,0
	c-4.146,0.008-7.501,3.375-7.493,7.521l0.015,8.007c0.016,8.317-2.48,16.327-7.215,23.163l-8.743,12.617
	C325.942,126.871,326.79,131.547,330.198,133.908z"/>
<path d="M351.693,55.139c0.005,0,0.01,0,0.015,0c4.146-0.008,7.501-3.375,7.493-7.521l-0.015-8.007
	c-0.008-4.146-3.418-7.509-7.521-7.493c-4.146,0.008-7.501,3.375-7.493,7.521l0.015,8.007
	C344.195,51.787,347.554,55.139,351.693,55.139z"/>
</svg>